<svg width="15" height="12" viewBox="0 0 15 12" fill="none" xmlns="http://www.w3.org/2000/svg">
<path id="Vector" fill-rule="evenodd" clip-rule="evenodd" d="M0 11.3333C0 11.1565 0.0718343 10.987 0.1997 10.8619C0.327566 10.7369 0.500989 10.6667 0.681818 10.6667H14.3182C14.499 10.6667 14.6724 10.7369 14.8003 10.8619C14.9282 10.987 15 11.1565 15 11.3333C15 11.5101 14.9282 11.6797 14.8003 11.8047C14.6724 11.9298 14.499 12 14.3182 12H0.681818C0.500989 12 0.327566 11.9298 0.1997 11.8047C0.0718343 11.6797 0 11.5101 0 11.3333ZM0 6C0 5.82319 0.0718343 5.65362 0.1997 5.5286C0.327566 5.40357 0.500989 5.33333 0.681818 5.33333H14.3182C14.499 5.33333 14.6724 5.40357 14.8003 5.5286C14.9282 5.65362 15 5.82319 15 6C15 6.17681 14.9282 6.34638 14.8003 6.47141C14.6724 6.59643 14.499 6.66667 14.3182 6.66667H0.681818C0.500989 6.66667 0.327566 6.59643 0.1997 6.47141C0.0718343 6.34638 0 6.17681 0 6ZM0 0.666667C0 0.489856 0.0718343 0.320287 0.1997 0.195262C0.327566 0.070238 0.500989 0 0.681818 0H14.3182C14.499 0 14.6724 0.070238 14.8003 0.195262C14.9282 0.320287 15 0.489856 15 0.666667C15 0.843478 14.9282 1.01305 14.8003 1.13807C14.6724 1.2631 14.499 1.33333 14.3182 1.33333H0.681818C0.500989 1.33333 0.327566 1.2631 0.1997 1.13807C0.0718343 1.01305 0 0.843478 0 0.666667Z" fill="#FAFF00"/>
</svg>
