<svg width="15" height="16" viewBox="0 0 15 16" fill="none" xmlns="http://www.w3.org/2000/svg">
<path id="x" d="M0.943152 12.7282L5.18088 7.67282L1.61499 3.17678C1.27907 2.74055 1.02498 2.36763 0.852713 2.05805C0.689061 1.74142 0.607235 1.43887 0.607235 1.1504C0.607235 0.854881 0.766581 0.591029 1.08527 0.358839C1.41258 0.119613 1.80879 0 2.2739 0C2.80792 0 3.22136 0.130167 3.51421 0.390501C3.81568 0.643799 4.22911 1.11873 4.75452 1.8153L7.5969 5.57256L10.6331 1.8153C10.8829 1.49868 11.0939 1.22779 11.2661 1.00264C11.447 0.777485 11.6193 0.591029 11.7829 0.443272C11.9466 0.295514 12.1275 0.186456 12.3256 0.116095C12.5323 0.0386983 12.7692 0 13.0362 0C13.5185 0 13.9104 0.119613 14.2119 0.358839C14.522 0.591029 14.677 0.868953 14.677 1.19261C14.677 1.66403 14.3454 2.30431 13.6822 3.11346L9.94832 7.67282L13.9664 12.7282C14.3282 13.1715 14.5909 13.5409 14.7545 13.8364C14.9182 14.1249 15 14.3993 15 14.6596C15 14.9059 14.9268 15.131 14.7804 15.3351C14.6339 15.5391 14.4272 15.701 14.1602 15.8206C13.8932 15.9402 13.5917 16 13.2558 16C12.8941 16 12.5883 15.9367 12.3385 15.81C12.0887 15.6904 11.8863 15.5391 11.7313 15.3562C11.5762 15.1733 11.2877 14.8179 10.8656 14.2902L7.5323 10.0053L3.99225 14.4169C3.71662 14.7687 3.51852 15.015 3.39793 15.1557C3.28596 15.2964 3.14815 15.4336 2.9845 15.5673C2.82084 15.701 2.62705 15.8065 2.4031 15.8839C2.17916 15.9613 1.91645 16 1.61499 16C1.14987 16 0.762274 15.8839 0.452196 15.6517C0.150732 15.4195 0 15.0818 0 14.6385C0 14.1179 0.314384 13.4811 0.943152 12.7282Z" fill="#FAFF00"/>
</svg>
