<svg width="237" height="81" viewBox="0 0 237 81" fill="none" xmlns="http://www.w3.org/2000/svg">
<g id="LOGO">
<circle id="Ellipse 1" cx="40.5" cy="40.5" r="40.5" fill="#FAFF00"/>
<g id="CO">
<path d="M31.9551 45.5249L38.2661 47.9688C37.2814 52.373 35.6432 55.5957 33.3516 57.6367C31.0599 59.6598 28.2401 60.6714 24.8921 60.6714C20.6847 60.6714 17.2741 59.0511 14.6602 55.8105C11.6523 52.0687 10.1484 47.0199 10.1484 40.6641C10.1484 33.9502 11.6613 28.6955 14.687 24.8999C17.3188 21.6056 20.8548 19.9585 25.2949 19.9585C28.9115 19.9585 31.9372 21.1938 34.3721 23.6646C36.1087 25.4191 37.3799 28.0241 38.1855 31.4795L31.7402 33.3594C31.3285 31.2288 30.5049 29.5996 29.2695 28.4717C28.0521 27.3258 26.6108 26.7529 24.9458 26.7529C22.5646 26.7529 20.6221 27.7913 19.1182 29.8682C17.6143 31.945 16.8623 35.3735 16.8623 40.1538C16.8623 45.1131 17.5964 48.6401 19.0645 50.7349C20.5326 52.8296 22.4393 53.877 24.7847 53.877C26.5034 53.877 27.9894 53.2145 29.2427 51.8896C30.4959 50.5469 31.4001 48.4253 31.9551 45.5249Z" fill="#1E1E1E"/>
<path d="M38.1361 40.5566C38.1361 35.8659 38.8254 32.0076 40.204 28.9819C41.6005 25.9383 43.4177 23.6735 45.6557 22.1875C47.8936 20.7015 50.606 19.9585 53.7929 19.9585C58.412 19.9585 62.1718 21.722 65.0722 25.249C67.9905 28.776 69.4496 33.798 69.4496 40.3149C69.4496 46.9035 67.9099 52.0508 64.8305 55.7568C62.127 59.0332 58.4568 60.6714 53.8197 60.6714C49.1469 60.6714 45.4587 59.0511 42.7553 55.8105C39.6758 52.1045 38.1361 47.0199 38.1361 40.5566ZM44.85 40.2881C44.85 44.8177 45.7094 48.2194 47.4281 50.4932C49.1469 52.749 51.2774 53.877 53.8197 53.877C56.3799 53.877 58.5015 52.758 60.1845 50.52C61.8674 48.2642 62.7089 44.8088 62.7089 40.1538C62.7089 35.5884 61.8853 32.2135 60.2382 30.0293C58.609 27.8451 56.4695 26.7529 53.8197 26.7529C51.17 26.7529 49.0126 27.854 47.3476 30.0562C45.6825 32.2583 44.85 35.6689 44.85 40.2881Z" fill="#1E1E1E"/>
</g>
<g id="CRIANDO">
<path d="M102.422 43.4727L107.012 45.25C106.296 48.4531 105.104 50.7969 103.438 52.2812C101.771 53.7526 99.7201 54.4883 97.2852 54.4883C94.2253 54.4883 91.7448 53.3099 89.8438 50.9531C87.6562 48.2318 86.5625 44.5599 86.5625 39.9375C86.5625 35.0547 87.6628 31.2331 89.8633 28.4727C91.7773 26.0768 94.349 24.8789 97.5781 24.8789C100.208 24.8789 102.409 25.7773 104.18 27.5742C105.443 28.8503 106.367 30.7448 106.953 33.2578L102.266 34.625C101.966 33.0755 101.367 31.8906 100.469 31.0703C99.5833 30.237 98.5352 29.8203 97.3242 29.8203C95.5924 29.8203 94.1797 30.5755 93.0859 32.0859C91.9922 33.5964 91.4453 36.0898 91.4453 39.5664C91.4453 43.1732 91.9792 45.7383 93.0469 47.2617C94.1146 48.7852 95.5013 49.5469 97.207 49.5469C98.457 49.5469 99.5378 49.0651 100.449 48.1016C101.361 47.125 102.018 45.582 102.422 43.4727Z" fill="white"/>
<path d="M111.074 54V25.3672H121.055C123.607 25.3672 125.43 25.6276 126.523 26.1484C127.617 26.6562 128.516 27.5482 129.219 28.8242C129.922 30.0872 130.273 31.6042 130.273 33.375C130.273 35.6146 129.733 37.418 128.652 38.7852C127.585 40.1523 126.061 41.0117 124.082 41.3633C125.098 42.0924 125.938 42.8932 126.602 43.7656C127.266 44.625 128.171 46.1745 129.316 48.4141L132.168 54H126.523L123.086 47.7695C121.849 45.5169 121.009 44.1107 120.566 43.5508C120.124 42.9779 119.655 42.5872 119.16 42.3789C118.665 42.1576 117.871 42.0469 116.777 42.0469H115.801V54H111.074ZM115.801 37.4766H119.316C121.465 37.4766 122.832 37.3854 123.418 37.2031C124.004 37.0078 124.479 36.6237 124.844 36.0508C125.208 35.4779 125.391 34.7161 125.391 33.7656C125.391 32.8542 125.208 32.125 124.844 31.5781C124.479 31.0182 123.984 30.6341 123.359 30.4258C122.917 30.2826 121.634 30.2109 119.512 30.2109H115.801V37.4766Z" fill="white"/>
<path d="M134.59 54V25.3672H139.316V54H134.59Z" fill="white"/>
<path d="M165.039 54H159.883L157.832 47.4961H148.457L146.523 54H141.484L150.625 25.3672H155.645L165.039 54ZM156.309 42.6719L153.086 32.0469L149.902 42.6719H156.309Z" fill="white"/>
<path d="M167.598 54V25.3672H172.207L181.816 44.4883V25.3672H186.23V54H181.465L172.012 35.3281V54H167.598Z" fill="white"/>
<path d="M191.191 25.3672H199.844C202.031 25.3672 203.678 25.6146 204.785 26.1094C205.905 26.5911 206.934 27.4115 207.871 28.5703C208.809 29.7292 209.544 31.2331 210.078 33.082C210.612 34.931 210.879 37.2292 210.879 39.9766C210.879 42.4505 210.599 44.6055 210.039 46.4414C209.479 48.2643 208.77 49.7096 207.91 50.7773C207.051 51.8451 206.009 52.6523 204.785 53.1992C203.574 53.7331 202.012 54 200.098 54H191.191V25.3672ZM195.918 30.2109V49.1758H199.473C200.996 49.1758 202.096 49.0326 202.773 48.7461C203.464 48.4596 204.023 48.0299 204.453 47.457C204.896 46.8711 205.26 45.9531 205.547 44.7031C205.833 43.4531 205.977 41.806 205.977 39.7617C205.977 37.6393 205.827 35.9661 205.527 34.7422C205.241 33.5182 204.785 32.5547 204.16 31.8516C203.548 31.1484 202.799 30.6862 201.914 30.4648C201.25 30.2956 199.967 30.2109 198.066 30.2109H195.918Z" fill="white"/>
<path d="M213.945 39.8594C213.945 36.4479 214.447 33.6419 215.449 31.4414C216.465 29.2279 217.786 27.5807 219.414 26.5C221.042 25.4193 223.014 24.8789 225.332 24.8789C228.691 24.8789 231.426 26.1615 233.535 28.7266C235.658 31.2917 236.719 34.944 236.719 39.6836C236.719 44.4753 235.599 48.2188 233.359 50.9141C231.393 53.2969 228.724 54.4883 225.352 54.4883C221.953 54.4883 219.271 53.3099 217.305 50.9531C215.065 48.2578 213.945 44.5599 213.945 39.8594ZM218.828 39.6641C218.828 42.9583 219.453 45.4323 220.703 47.0859C221.953 48.7266 223.503 49.5469 225.352 49.5469C227.214 49.5469 228.757 48.7331 229.98 47.1055C231.204 45.4648 231.816 42.9518 231.816 39.5664C231.816 36.2461 231.217 33.7917 230.02 32.2031C228.835 30.6146 227.279 29.8203 225.352 29.8203C223.424 29.8203 221.855 30.6211 220.645 32.2227C219.434 33.8242 218.828 36.3047 218.828 39.6641Z" fill="white"/>
</g>
</g>
</svg>
